# MagicaVoxel @ Ephtracy

# group
o 

# material
mtllib joel_turret_top.mtl
usemtl palette

# normals
vn -1 0 0
vn 1 0 0
vn 0 0 1
vn 0 0 -1
vn 0 -1 0
vn 0 1 0

# texcoords
vt 0.341797 0.5
vt 0.427734 0.5
vt 0.599609 0.5
vt 0.986328 0.5
vt 0.990234 0.5

# verts
v -0.4 1.1 0.2
v -0.4 1.1 -0.2
v -0.4 1.2 0.3
v -0.4 1.2 0.2
v -0.4 1.2 -0.2
v -0.4 1.2 -0.3
v -0.4 1.6 0.3
v -0.4 1.6 0.2
v -0.4 1.6 -0.2
v -0.4 1.6 -0.3
v -0.4 1.7 0.2
v -0.4 1.7 -0.2
v -0.3 1.2 0.5
v -0.3 1.2 0.3
v -0.3 1.2 -0.3
v -0.3 1.2 -0.5
v -0.3 1.3 0.5
v -0.3 1.3 0.4
v -0.3 1.3 0.1
v -0.3 1.3 -0.1
v -0.3 1.3 -0.3
v -0.3 1.3 -0.4
v -0.3 1.5 0.5
v -0.3 1.5 0.4
v -0.3 1.5 0.1
v -0.3 1.5 -0.1
v -0.3 1.5 -0.3
v -0.3 1.5 -0.4
v -0.3 1.6 0.5
v -0.3 1.6 0.3
v -0.3 1.6 -0.3
v -0.3 1.6 -0.5
v -0.2 1.1 0.3
v -0.2 1.1 0.2
v -0.2 1.1 -0.2
v -0.2 1.1 -0.3
v -0.2 1.2 0.3
v -0.2 1.2 0.2
v -0.2 1.2 -0.2
v -0.2 1.2 -0.3
v -0.2 1.3 0.1
v -0.2 1.3 -0.1
v -0.2 1.5 0.1
v -0.2 1.5 -0.1
v -0.2 1.6 0.3
v -0.2 1.6 0.2
v -0.2 1.6 -0.2
v -0.2 1.6 -0.3
v -0.2 1.7 0.3
v -0.2 1.7 0.2
v -0.2 1.7 -0.2
v -0.2 1.7 -0.3
v 0.1 1.2 0.5
v 0.1 1.2 0.4
v 0.1 1.2 -0.3
v 0.1 1.2 -0.4
v 0.1 1.3 0.5
v 0.1 1.3 0.4
v 0.1 1.3 0.3
v 0.1 1.3 -0.3
v 0.1 1.3 -0.4
v 0.1 1.3 -0.5
v 0.1 1.5 0.5
v 0.1 1.5 0.4
v 0.1 1.5 0.3
v 0.1 1.5 -0.3
v 0.1 1.5 -0.4
v 0.1 1.5 -0.5
v 0.1 1.6 0.5
v 0.1 1.6 0.4
v 0.1 1.6 -0.3
v 0.1 1.6 -0.4
v -0.2 1.2 0.5
v -0.2 1.2 0.4
v -0.2 1.2 -0.3
v -0.2 1.2 -0.4
v -0.2 1.3 0.5
v -0.2 1.3 0.4
v -0.2 1.3 0.3
v -0.2 1.3 -0.3
v -0.2 1.3 -0.4
v -0.2 1.3 -0.5
v -0.2 1.5 0.5
v -0.2 1.5 0.4
v -0.2 1.5 0.3
v -0.2 1.5 -0.3
v -0.2 1.5 -0.4
v -0.2 1.5 -0.5
v -0.2 1.6 0.5
v -0.2 1.6 0.4
v -0.2 1.6 -0.3
v -0.2 1.6 -0.4
v 0.2 1.1 0.3
v 0.2 1.1 0.2
v 0.2 1.1 -0.2
v 0.2 1.1 -0.3
v 0.2 1.2 0.5
v 0.2 1.2 0.3
v 0.2 1.2 0.2
v 0.2 1.2 -0.2
v 0.2 1.2 -0.3
v 0.2 1.2 -0.5
v 0.2 1.3 0.5
v 0.2 1.3 0.4
v 0.2 1.3 -0.3
v 0.2 1.3 -0.4
v 0.2 1.5 0.5
v 0.2 1.5 0.4
v 0.2 1.5 -0.3
v 0.2 1.5 -0.4
v 0.2 1.6 0.5
v 0.2 1.6 0.3
v 0.2 1.6 0.2
v 0.2 1.6 -0.2
v 0.2 1.6 -0.3
v 0.2 1.6 -0.5
v 0.2 1.7 0.3
v 0.2 1.7 0.2
v 0.2 1.7 -0.2
v 0.2 1.7 -0.3
v 0.3 1.1 0.2
v 0.3 1.1 -0.2
v 0.3 1.2 0.3
v 0.3 1.2 0.2
v 0.3 1.2 -0.2
v 0.3 1.2 -0.3
v 0.3 1.4 0.1
v 0.3 1.4 -0.1
v 0.3 1.6 0.3
v 0.3 1.6 0.2
v 0.3 1.6 0.1
v 0.3 1.6 -0.1
v 0.3 1.6 -0.2
v 0.3 1.6 -0.3
v 0.3 1.7 0.2
v 0.3 1.7 -0.2
v 1 1.4 0.1
v 1 1.4 -0.1
v 1 1.6 0.1
v 1 1.6 -0.1
v -0.3 1.2 0.5
v -0.3 1.3 0.5
v -0.3 1.5 0.5
v -0.3 1.6 0.5
v -0.2 1.2 0.5
v -0.2 1.3 0.5
v -0.2 1.5 0.5
v -0.2 1.6 0.5
v 0.1 1.2 0.5
v 0.1 1.3 0.5
v 0.1 1.5 0.5
v 0.1 1.6 0.5
v 0.2 1.2 0.5
v 0.2 1.3 0.5
v 0.2 1.5 0.5
v 0.2 1.6 0.5
v -0.3 1.3 0.4
v -0.3 1.5 0.4
v -0.2 1.2 0.4
v -0.2 1.3 0.4
v -0.2 1.5 0.4
v -0.2 1.6 0.4
v 0.1 1.2 0.4
v 0.1 1.3 0.4
v 0.1 1.5 0.4
v 0.1 1.6 0.4
v 0.2 1.3 0.4
v 0.2 1.5 0.4
v -0.4 1.2 0.3
v -0.4 1.6 0.3
v -0.3 1.2 0.3
v -0.3 1.6 0.3
v -0.2 1.1 0.3
v -0.2 1.2 0.3
v -0.2 1.3 0.3
v -0.2 1.5 0.3
v -0.2 1.6 0.3
v -0.2 1.7 0.3
v -0.1 1.1 0.3
v -0.1 1.2 0.3
v -0.1 1.3 0.3
v -0.1 1.5 0.3
v -0.1 1.6 0.3
v -0.1 1.7 0.3
v 0.1 1.3 0.3
v 0.1 1.5 0.3
v 0.2 1.1 0.3
v 0.2 1.2 0.3
v 0.2 1.6 0.3
v 0.2 1.7 0.3
v 0.3 1.2 0.3
v 0.3 1.6 0.3
v -0.4 1.1 0.2
v -0.4 1.2 0.2
v -0.4 1.6 0.2
v -0.4 1.7 0.2
v -0.2 1.1 0.2
v -0.2 1.2 0.2
v -0.2 1.6 0.2
v -0.2 1.7 0.2
v 0.2 1.1 0.2
v 0.2 1.2 0.2
v 0.2 1.6 0.2
v 0.2 1.7 0.2
v 0.3 1.1 0.2
v 0.3 1.2 0.2
v 0.3 1.6 0.2
v 0.3 1.7 0.2
v -0.3 1.3 0.1
v -0.3 1.5 0.1
v -0.2 1.3 0.1
v -0.2 1.5 0.1
v 0.3 1.4 0.1
v 0.3 1.6 0.1
v 1 1.4 0.1
v 1 1.6 0.1
v -0.4 1.2 -0.2
v -0.4 1.6 -0.2
v -0.2 1.2 -0.2
v -0.2 1.6 -0.2
v -0.3 1.3 -0.4
v -0.3 1.5 -0.4
v -0.2 1.2 -0.4
v -0.2 1.3 -0.4
v -0.2 1.5 -0.4
v -0.2 1.6 -0.4
v 0.1 1.2 -0.4
v 0.1 1.3 -0.4
v 0.1 1.5 -0.4
v 0.1 1.6 -0.4
v 0.2 1.3 -0.4
v 0.2 1.5 -0.4
v -0.4 1.2 0.2
v -0.4 1.6 0.2
v -0.2 1.2 0.2
v -0.2 1.6 0.2
v -0.3 1.3 -0.1
v -0.3 1.5 -0.1
v -0.2 1.3 -0.1
v -0.2 1.5 -0.1
v 0.3 1.4 -0.1
v 0.3 1.6 -0.1
v 1 1.4 -0.1
v 1 1.6 -0.1
v -0.4 1.1 -0.2
v -0.4 1.2 -0.2
v -0.4 1.6 -0.2
v -0.4 1.7 -0.2
v -0.2 1.1 -0.2
v -0.2 1.2 -0.2
v -0.2 1.6 -0.2
v -0.2 1.7 -0.2
v 0.2 1.1 -0.2
v 0.2 1.2 -0.2
v 0.2 1.6 -0.2
v 0.2 1.7 -0.2
v 0.3 1.1 -0.2
v 0.3 1.2 -0.2
v 0.3 1.6 -0.2
v 0.3 1.7 -0.2
v -0.4 1.2 -0.3
v -0.4 1.6 -0.3
v -0.3 1.2 -0.3
v -0.3 1.3 -0.3
v -0.3 1.5 -0.3
v -0.3 1.6 -0.3
v -0.2 1.1 -0.3
v -0.2 1.2 -0.3
v -0.2 1.3 -0.3
v -0.2 1.5 -0.3
v -0.2 1.6 -0.3
v -0.2 1.7 -0.3
v -0.1 1.1 -0.3
v -0.1 1.7 -0.3
v 0.1 1.2 -0.3
v 0.1 1.3 -0.3
v 0.1 1.5 -0.3
v 0.1 1.6 -0.3
v 0.2 1.1 -0.3
v 0.2 1.2 -0.3
v 0.2 1.3 -0.3
v 0.2 1.5 -0.3
v 0.2 1.6 -0.3
v 0.2 1.7 -0.3
v 0.3 1.2 -0.3
v 0.3 1.6 -0.3
v -0.3 1.2 -0.5
v -0.3 1.6 -0.5
v -0.2 1.3 -0.5
v -0.2 1.5 -0.5
v 0.1 1.3 -0.5
v 0.1 1.5 -0.5
v 0.2 1.2 -0.5
v 0.2 1.6 -0.5
v -0.2 1.1 0.3
v -0.1 1.1 0.3
v 0.2 1.1 0.3
v -0.4 1.1 0.2
v -0.2 1.1 0.2
v 0.2 1.1 0.2
v 0.3 1.1 0.2
v -0.4 1.1 -0.2
v -0.2 1.1 -0.2
v 0.2 1.1 -0.2
v 0.3 1.1 -0.2
v -0.2 1.1 -0.3
v -0.1 1.1 -0.3
v 0.2 1.1 -0.3
v -0.3 1.2 0.5
v -0.2 1.2 0.5
v 0.1 1.2 0.5
v 0.2 1.2 0.5
v -0.2 1.2 0.4
v 0.1 1.2 0.4
v -0.4 1.2 0.3
v -0.3 1.2 0.3
v -0.2 1.2 0.3
v -0.1 1.2 0.3
v 0.2 1.2 0.3
v 0.3 1.2 0.3
v -0.4 1.2 0.2
v -0.2 1.2 0.2
v 0.2 1.2 0.2
v 0.3 1.2 0.2
v -0.4 1.2 -0.2
v -0.2 1.2 -0.2
v 0.2 1.2 -0.2
v 0.3 1.2 -0.2
v -0.4 1.2 -0.3
v -0.3 1.2 -0.3
v -0.2 1.2 -0.3
v 0.1 1.2 -0.3
v 0.2 1.2 -0.3
v 0.3 1.2 -0.3
v -0.2 1.2 -0.4
v 0.1 1.2 -0.4
v -0.3 1.2 -0.5
v 0.2 1.2 -0.5
v -0.3 1.3 0.1
v -0.2 1.3 0.1
v -0.3 1.3 -0.1
v -0.2 1.3 -0.1
v 0.3 1.4 0.1
v 1 1.4 0.1
v 0.3 1.4 -0.1
v 1 1.4 -0.1
v -0.3 1.5 0.5
v -0.2 1.5 0.5
v 0.1 1.5 0.5
v 0.2 1.5 0.5
v -0.3 1.5 0.4
v -0.2 1.5 0.4
v 0.1 1.5 0.4
v 0.2 1.5 0.4
v -0.2 1.5 0.3
v -0.1 1.5 0.3
v 0.1 1.5 0.3
v -0.3 1.5 -0.3
v -0.2 1.5 -0.3
v 0.1 1.5 -0.3
v 0.2 1.5 -0.3
v -0.3 1.5 -0.4
v -0.2 1.5 -0.4
v 0.1 1.5 -0.4
v 0.2 1.5 -0.4
v -0.2 1.5 -0.5
v 0.1 1.5 -0.5
v -0.4 1.6 0.2
v -0.2 1.6 0.2
v -0.4 1.6 -0.2
v -0.2 1.6 -0.2
v -0.4 1.2 0.2
v -0.2 1.2 0.2
v -0.4 1.2 -0.2
v -0.2 1.2 -0.2
v -0.3 1.3 0.5
v -0.2 1.3 0.5
v 0.1 1.3 0.5
v 0.2 1.3 0.5
v -0.3 1.3 0.4
v -0.2 1.3 0.4
v 0.1 1.3 0.4
v 0.2 1.3 0.4
v -0.2 1.3 0.3
v -0.1 1.3 0.3
v 0.1 1.3 0.3
v -0.3 1.3 -0.3
v -0.2 1.3 -0.3
v 0.1 1.3 -0.3
v 0.2 1.3 -0.3
v -0.3 1.3 -0.4
v -0.2 1.3 -0.4
v 0.1 1.3 -0.4
v 0.2 1.3 -0.4
v -0.2 1.3 -0.5
v 0.1 1.3 -0.5
v -0.3 1.5 0.1
v -0.2 1.5 0.1
v -0.3 1.5 -0.1
v -0.2 1.5 -0.1
v -0.3 1.6 0.5
v -0.2 1.6 0.5
v 0.1 1.6 0.5
v 0.2 1.6 0.5
v -0.2 1.6 0.4
v 0.1 1.6 0.4
v -0.4 1.6 0.3
v -0.3 1.6 0.3
v -0.2 1.6 0.3
v -0.1 1.6 0.3
v 0.2 1.6 0.3
v 0.3 1.6 0.3
v -0.4 1.6 0.2
v -0.2 1.6 0.2
v 0.2 1.6 0.2
v 0.3 1.6 0.2
v 0.3 1.6 0.1
v 1 1.6 0.1
v 0.3 1.6 -0.1
v 1 1.6 -0.1
v -0.4 1.6 -0.2
v -0.2 1.6 -0.2
v 0.2 1.6 -0.2
v 0.3 1.6 -0.2
v -0.4 1.6 -0.3
v -0.3 1.6 -0.3
v -0.2 1.6 -0.3
v 0.1 1.6 -0.3
v 0.2 1.6 -0.3
v 0.3 1.6 -0.3
v -0.2 1.6 -0.4
v 0.1 1.6 -0.4
v -0.3 1.6 -0.5
v 0.2 1.6 -0.5
v -0.2 1.7 0.3
v -0.1 1.7 0.3
v 0.2 1.7 0.3
v -0.4 1.7 0.2
v -0.2 1.7 0.2
v 0.2 1.7 0.2
v 0.3 1.7 0.2
v -0.4 1.7 -0.2
v -0.2 1.7 -0.2
v 0.2 1.7 -0.2
v 0.3 1.7 -0.2
v -0.2 1.7 -0.3
v -0.1 1.7 -0.3
v 0.2 1.7 -0.3

# faces
f 4/1/1 2/1/1 1/1/1
f 5/1/1 2/1/1 4/1/1
f 7/1/1 4/1/1 3/1/1
f 8/1/1 4/1/1 7/1/1
f 9/1/1 6/1/1 5/1/1
f 10/1/1 6/1/1 9/1/1
f 11/1/1 9/1/1 8/1/1
f 12/1/1 9/1/1 11/1/1
f 17/3/1 14/3/1 13/3/1
f 18/3/1 14/3/1 17/3/1
f 21/3/1 16/3/1 15/3/1
f 22/3/1 16/3/1 21/3/1
f 24/3/1 14/3/1 18/3/1
f 25/1/1 20/1/1 19/1/1
f 26/1/1 20/1/1 25/1/1
f 28/3/1 16/3/1 22/3/1
f 29/3/1 24/3/1 23/3/1
f 30/3/1 14/3/1 24/3/1
f 30/3/1 24/3/1 29/3/1
f 31/3/1 28/3/1 27/3/1
f 32/3/1 16/3/1 28/3/1
f 32/3/1 28/3/1 31/3/1
f 37/2/1 34/2/1 33/2/1
f 38/2/1 34/2/1 37/2/1
f 39/2/1 36/2/1 35/2/1
f 40/2/1 36/2/1 39/2/1
f 41/2/1 39/2/1 38/2/1
f 42/2/1 39/2/1 41/2/1
f 43/2/1 41/2/1 38/2/1
f 44/2/1 39/2/1 42/2/1
f 46/2/1 43/2/1 38/2/1
f 46/2/1 44/2/1 43/2/1
f 47/2/1 39/2/1 44/2/1
f 47/2/1 44/2/1 46/2/1
f 49/2/1 46/2/1 45/2/1
f 50/2/1 46/2/1 49/2/1
f 51/2/1 48/2/1 47/2/1
f 52/2/1 48/2/1 51/2/1
f 57/3/1 54/3/1 53/3/1
f 58/3/1 54/3/1 57/3/1
f 60/3/1 56/3/1 55/3/1
f 61/3/1 56/3/1 60/3/1
f 64/3/1 59/3/1 58/3/1
f 65/3/1 59/3/1 64/3/1
f 67/3/1 62/3/1 61/3/1
f 68/3/1 62/3/1 67/3/1
f 69/3/1 64/3/1 63/3/1
f 70/3/1 64/3/1 69/3/1
f 71/3/1 67/3/1 66/3/1
f 72/3/1 67/3/1 71/3/1
f 73/3/2 74/3/2 77/3/2
f 77/3/2 74/3/2 78/3/2
f 75/3/2 76/3/2 80/3/2
f 80/3/2 76/3/2 81/3/2
f 78/3/2 79/3/2 84/3/2
f 84/3/2 79/3/2 85/3/2
f 81/3/2 82/3/2 87/3/2
f 87/3/2 82/3/2 88/3/2
f 83/3/2 84/3/2 89/3/2
f 89/3/2 84/3/2 90/3/2
f 86/3/2 87/3/2 91/3/2
f 91/3/2 87/3/2 92/3/2
f 93/1/2 94/1/2 98/1/2
f 98/1/2 94/1/2 99/1/2
f 95/1/2 96/1/2 100/1/2
f 100/1/2 96/1/2 101/1/2
f 97/3/2 98/3/2 103/3/2
f 103/3/2 98/3/2 104/3/2
f 101/3/2 102/3/2 105/3/2
f 105/3/2 102/3/2 106/3/2
f 104/3/2 98/3/2 108/3/2
f 106/3/2 102/3/2 110/3/2
f 107/3/2 108/3/2 111/3/2
f 108/3/2 98/3/2 112/3/2
f 111/3/2 108/3/2 112/3/2
f 109/3/2 110/3/2 115/3/2
f 110/3/2 102/3/2 116/3/2
f 115/3/2 110/3/2 116/3/2
f 112/1/2 113/1/2 117/1/2
f 117/1/2 113/1/2 118/1/2
f 114/1/2 115/1/2 119/1/2
f 119/1/2 115/1/2 120/1/2
f 121/1/2 122/1/2 124/1/2
f 124/1/2 122/1/2 125/1/2
f 123/1/2 124/1/2 127/1/2
f 125/1/2 126/1/2 127/1/2
f 124/1/2 125/1/2 127/1/2
f 127/1/2 126/1/2 128/1/2
f 123/1/2 127/1/2 129/1/2
f 129/1/2 127/1/2 130/1/2
f 130/1/2 127/1/2 131/1/2
f 128/1/2 126/1/2 132/1/2
f 132/1/2 126/1/2 133/1/2
f 133/1/2 126/1/2 134/1/2
f 130/1/2 131/1/2 135/1/2
f 132/1/2 133/1/2 135/1/2
f 131/1/2 132/1/2 135/1/2
f 135/1/2 133/1/2 136/1/2
f 137/5/2 138/5/2 139/5/2
f 139/5/2 138/5/2 140/5/2
f 145/3/3 142/3/3 141/3/3
f 146/3/3 142/3/3 145/3/3
f 147/3/3 144/3/3 143/3/3
f 148/3/3 144/3/3 147/3/3
f 153/3/3 150/3/3 149/3/3
f 154/3/3 150/3/3 153/3/3
f 155/3/3 152/3/3 151/3/3
f 156/3/3 152/3/3 155/3/3
f 160/3/3 158/3/3 157/3/3
f 161/3/3 158/3/3 160/3/3
f 163/3/3 160/3/3 159/3/3
f 164/3/3 160/3/3 163/3/3
f 165/3/3 162/3/3 161/3/3
f 166/3/3 162/3/3 165/3/3
f 167/3/3 165/3/3 164/3/3
f 168/3/3 165/3/3 167/3/3
f 171/1/3 170/1/3 169/1/3
f 172/1/3 170/1/3 171/1/3
f 179/2/3 174/2/3 173/2/3
f 180/2/3 174/2/3 179/2/3
f 181/2/3 176/2/3 175/2/3
f 182/2/3 176/2/3 181/2/3
f 183/2/3 178/2/3 177/2/3
f 184/2/3 178/2/3 183/2/3
f 185/1/3 182/1/3 181/1/3
f 186/1/3 182/1/3 185/1/3
f 187/1/3 180/1/3 179/1/3
f 188/1/3 180/1/3 187/1/3
f 189/1/3 184/1/3 183/1/3
f 190/1/3 184/1/3 189/1/3
f 191/1/3 189/1/3 188/1/3
f 192/1/3 189/1/3 191/1/3
f 197/1/3 194/1/3 193/1/3
f 198/1/3 194/1/3 197/1/3
f 199/1/3 196/1/3 195/1/3
f 200/1/3 196/1/3 199/1/3
f 205/1/3 202/1/3 201/1/3
f 206/1/3 202/1/3 205/1/3
f 207/1/3 204/1/3 203/1/3
f 208/1/3 204/1/3 207/1/3
f 211/1/3 210/1/3 209/1/3
f 212/1/3 210/1/3 211/1/3
f 215/5/3 214/5/3 213/5/3
f 216/5/3 214/5/3 215/5/3
f 219/1/3 218/1/3 217/1/3
f 220/1/3 218/1/3 219/1/3
f 224/3/3 222/3/3 221/3/3
f 225/3/3 222/3/3 224/3/3
f 227/3/3 224/3/3 223/3/3
f 228/3/3 224/3/3 227/3/3
f 229/3/3 226/3/3 225/3/3
f 230/3/3 226/3/3 229/3/3
f 231/3/3 229/3/3 228/3/3
f 232/3/3 229/3/3 231/3/3
f 233/1/4 234/1/4 235/1/4
f 235/1/4 234/1/4 236/1/4
f 237/1/4 238/1/4 239/1/4
f 239/1/4 238/1/4 240/1/4
f 241/5/4 242/5/4 243/5/4
f 243/5/4 242/5/4 244/5/4
f 245/1/4 246/1/4 249/1/4
f 249/1/4 246/1/4 250/1/4
f 247/1/4 248/1/4 251/1/4
f 251/1/4 248/1/4 252/1/4
f 253/1/4 254/1/4 257/1/4
f 257/1/4 254/1/4 258/1/4
f 255/1/4 256/1/4 259/1/4
f 259/1/4 256/1/4 260/1/4
f 261/1/4 262/1/4 263/1/4
f 263/1/4 262/1/4 264/1/4
f 264/1/4 262/1/4 265/1/4
f 265/1/4 262/1/4 266/1/4
f 264/1/4 265/1/4 269/1/4
f 269/1/4 265/1/4 270/1/4
f 270/2/4 271/2/4 273/2/4
f 271/2/4 272/2/4 273/2/4
f 269/2/4 270/2/4 273/2/4
f 268/2/4 269/2/4 273/2/4
f 267/2/4 268/2/4 273/2/4
f 273/2/4 272/2/4 274/2/4
f 273/1/4 274/1/4 275/1/4
f 275/1/4 274/1/4 276/1/4
f 276/1/4 274/1/4 277/1/4
f 277/1/4 274/1/4 278/1/4
f 273/1/4 275/1/4 279/1/4
f 279/1/4 275/1/4 280/1/4
f 276/1/4 277/1/4 281/1/4
f 281/1/4 277/1/4 282/1/4
f 278/1/4 274/1/4 283/1/4
f 283/1/4 274/1/4 284/1/4
f 281/1/4 282/1/4 285/1/4
f 282/1/4 283/1/4 285/1/4
f 280/1/4 281/1/4 285/1/4
f 285/1/4 283/1/4 286/1/4
f 287/3/4 288/3/4 289/3/4
f 289/3/4 288/3/4 290/3/4
f 287/3/4 289/3/4 291/3/4
f 290/3/4 288/3/4 292/3/4
f 287/3/4 291/3/4 293/3/4
f 291/3/4 292/3/4 293/3/4
f 292/3/4 288/3/4 294/3/4
f 293/3/4 292/3/4 294/3/4
f 299/2/5 296/2/5 295/2/5
f 300/1/5 297/1/5 296/1/5
f 302/1/5 299/1/5 298/1/5
f 303/2/5 296/2/5 299/2/5
f 303/1/5 299/1/5 302/1/5
f 304/1/5 301/1/5 300/1/5
f 304/1/5 300/1/5 296/1/5
f 305/1/5 301/1/5 304/1/5
f 306/2/5 296/2/5 303/2/5
f 307/1/5 304/1/5 296/1/5
f 307/2/5 296/2/5 306/2/5
f 308/1/5 304/1/5 307/1/5
f 313/3/5 310/3/5 309/3/5
f 314/3/5 312/3/5 311/3/5
f 316/3/5 313/3/5 309/3/5
f 316/3/5 314/3/5 313/3/5
f 317/3/5 314/3/5 316/3/5
f 318/3/5 314/3/5 317/3/5
f 319/3/5 312/3/5 314/3/5
f 319/3/5 314/3/5 318/3/5
f 321/1/5 316/1/5 315/1/5
f 321/1/5 317/1/5 316/1/5
f 322/1/5 317/1/5 321/1/5
f 323/1/5 320/1/5 319/1/5
f 324/1/5 320/1/5 323/1/5
f 329/1/5 326/1/5 325/1/5
f 330/1/5 326/1/5 329/1/5
f 331/1/5 326/1/5 330/1/5
f 333/1/5 328/1/5 327/1/5
f 334/1/5 328/1/5 333/1/5
f 335/3/5 331/3/5 330/3/5
f 336/3/5 333/3/5 332/3/5
f 337/3/5 335/3/5 330/3/5
f 337/3/5 336/3/5 335/3/5
f 338/3/5 333/3/5 336/3/5
f 338/3/5 336/3/5 337/3/5
f 341/1/5 340/1/5 339/1/5
f 342/1/5 340/1/5 341/1/5
f 345/5/5 344/5/5 343/5/5
f 346/5/5 344/5/5 345/5/5
f 351/3/5 348/3/5 347/3/5
f 352/3/5 348/3/5 351/3/5
f 353/3/5 350/3/5 349/3/5
f 354/3/5 350/3/5 353/3/5
f 355/3/5 353/3/5 352/3/5
f 356/3/5 353/3/5 355/3/5
f 357/3/5 353/3/5 356/3/5
f 362/3/5 359/3/5 358/3/5
f 363/3/5 359/3/5 362/3/5
f 364/3/5 361/3/5 360/3/5
f 365/3/5 361/3/5 364/3/5
f 366/3/5 364/3/5 363/3/5
f 367/3/5 364/3/5 366/3/5
f 370/1/5 369/1/5 368/1/5
f 371/1/5 369/1/5 370/1/5
f 372/1/6 373/1/6 374/1/6
f 374/1/6 373/1/6 375/1/6
f 376/3/6 377/3/6 380/3/6
f 380/3/6 377/3/6 381/3/6
f 378/3/6 379/3/6 382/3/6
f 382/3/6 379/3/6 383/3/6
f 381/3/6 382/3/6 384/3/6
f 384/3/6 382/3/6 385/3/6
f 385/3/6 382/3/6 386/3/6
f 387/3/6 388/3/6 391/3/6
f 391/3/6 388/3/6 392/3/6
f 389/3/6 390/3/6 393/3/6
f 393/3/6 390/3/6 394/3/6
f 392/3/6 393/3/6 395/3/6
f 395/3/6 393/3/6 396/3/6
f 397/1/6 398/1/6 399/1/6
f 399/1/6 398/1/6 400/1/6
f 401/3/6 402/3/6 405/3/6
f 403/3/6 404/3/6 406/3/6
f 401/3/6 405/3/6 408/3/6
f 405/3/6 406/3/6 408/3/6
f 408/3/6 406/3/6 409/3/6
f 409/3/6 406/3/6 410/3/6
f 406/3/6 404/3/6 411/3/6
f 410/3/6 406/3/6 411/3/6
f 407/1/6 408/1/6 413/1/6
f 408/1/6 409/1/6 413/1/6
f 413/1/6 409/1/6 414/1/6
f 411/1/6 412/1/6 415/1/6
f 415/1/6 412/1/6 416/1/6
f 417/5/6 418/5/6 419/5/6
f 419/5/6 418/5/6 420/5/6
f 421/1/6 422/1/6 425/1/6
f 425/1/6 422/1/6 426/1/6
f 426/1/6 422/1/6 427/1/6
f 423/1/6 424/1/6 429/1/6
f 429/1/6 424/1/6 430/1/6
f 426/3/6 427/3/6 431/3/6
f 428/3/6 429/3/6 432/3/6
f 426/3/6 431/3/6 433/3/6
f 431/3/6 432/3/6 433/3/6
f 432/3/6 429/3/6 434/3/6
f 433/3/6 432/3/6 434/3/6
f 435/2/6 436/2/6 439/2/6
f 436/1/6 437/1/6 440/1/6
f 438/1/6 439/1/6 442/1/6
f 439/2/6 436/2/6 443/2/6
f 442/1/6 439/1/6 443/1/6
f 440/1/6 441/1/6 444/1/6
f 436/1/6 440/1/6 444/1/6
f 444/1/6 441/1/6 445/1/6
f 443/2/6 436/2/6 446/2/6
f 436/1/6 444/1/6 447/1/6
f 446/2/6 436/2/6 447/2/6
f 447/1/6 444/1/6 448/1/6
